<svg width="144" height="40" viewBox="0 0 144 40" fill="none" xmlns="http://www.w3.org/2000/svg">
<g clip-path="url(#clip0_2845_73443)">
<path d="M31.7972 13.529L31.6526 13.4985L31.6336 13.354C30.8385 7.73135 26.0642 3.5467 20.2856 3.39834L20.0003 3.39453L19.715 3.39834C10.5316 3.55431 3.33398 10.8166 3.33398 19.9353C3.33398 29.1263 10.8131 36.6054 20.0041 36.6054C20.3198 36.6054 20.6356 36.5978 20.9475 36.5788C29.7277 36.088 36.6324 28.7991 36.6628 19.9924C36.6742 19.513 36.64 17.0403 34.871 15.2028C34.3194 14.6246 33.3341 13.8676 31.7972 13.529ZM33.083 19.9619C33.0716 26.8856 27.6544 32.6148 20.7497 33.0028C20.5024 33.018 20.2552 33.0256 20.0041 33.0218C12.7875 33.0218 6.91376 27.1519 6.91376 19.9353C6.91376 12.791 12.563 7.10365 19.772 6.97811L20.0041 6.97431L20.2133 6.97811C23.9034 7.07322 27.08 9.584 27.9397 13.0839L28.0044 13.3464H19.8709C16.1694 13.3464 13.1603 16.3555 13.1603 20.057C13.1603 23.4542 15.6977 26.315 19.0568 26.7182C19.4525 26.7677 19.8557 26.7791 20.2514 26.7563C25.7066 26.6383 30.363 22.7847 31.4967 17.4511L31.5575 17.1658L31.8086 17.3104C31.9798 17.4055 32.1358 17.5272 32.2727 17.668C32.927 18.3337 33.0906 19.4179 33.083 19.9011V19.9619ZM27.9511 16.9262L27.8788 17.1963C26.9088 20.6771 23.7703 23.1118 20.1563 23.1765L20.0612 23.1803C20.0003 23.1841 19.9356 23.1879 19.8709 23.1879C19.7454 23.1879 19.6199 23.1803 19.4943 23.1651C17.7786 22.9558 16.5575 21.3961 16.7667 19.6804C16.9569 18.1093 18.2922 16.9262 19.8747 16.93L27.9511 16.9262Z" fill="#333333"/>
<path fill-rule="evenodd" clip-rule="evenodd" d="M74.6588 12.3639C75.0428 11.9799 75.2599 11.4599 75.2629 10.9169C75.2629 9.83468 74.3228 8.89453 73.2119 8.89453C72.101 8.89453 71.1895 9.83468 71.1895 10.9169C71.1875 11.1844 71.2383 11.4496 71.3389 11.6975C71.4395 11.9454 71.5879 12.171 71.7757 12.3614C71.9635 12.5519 72.187 12.7035 72.4335 12.8076C72.6799 12.9116 72.9444 12.9661 73.2119 12.9679C73.7549 12.9649 74.2749 12.7479 74.6588 12.3639ZM74.7788 29.2907V15.361H71.6169V29.2907H74.7788ZM68.2845 17.9545H60.1945L60.1996 21.1445H64.9548V24.7057C63.758 25.7312 62.1343 26.3293 60.0547 26.3293C56.2379 26.3293 53.4462 23.3668 53.4462 19.2361C53.4462 15.1627 56.1778 12.3142 60.022 12.3148C62.5302 12.3148 64.5812 13.5678 65.4647 15.4767L68.426 14.0232C67.3719 11.0888 63.9533 9.06641 60.022 9.06641C54.3261 9.06641 49.9961 13.4532 49.9961 19.2361C49.9961 25.0191 54.3548 29.5485 60.0518 29.5485C63.5867 29.5485 66.4902 28.1237 68.2845 25.8166V17.9545ZM85.375 29.293H82.6405L76.8008 15.3633H80.2474L84.008 25.0483L87.7394 15.3661H91.2152L85.375 29.293ZM96.2803 12.3641C96.6644 11.9801 96.8816 11.46 96.8846 10.9169C96.8846 9.83468 95.9439 8.89453 94.833 8.89453C93.7221 8.89453 92.8106 9.83468 92.8106 10.9169C92.8086 11.1844 92.8594 11.4496 92.96 11.6975C93.0606 11.9454 93.209 12.171 93.3968 12.3614C93.5846 12.5519 93.8081 12.7035 94.0546 12.8076C94.301 12.9116 94.5655 12.9661 94.833 12.9679C95.3761 12.9651 95.8962 12.7481 96.2803 12.3641ZM96.3999 29.2907V15.361H93.238V29.2907H96.3999ZM112.894 21.3452V29.2926H109.705V21.8579C109.705 19.607 108.395 18.24 106.429 18.24C105.005 18.24 103.638 18.9808 102.926 20.177V29.2926H99.7637V15.3629H102.926V17.2432C103.78 15.9043 105.433 15.0781 107.199 15.0781C110.672 15.0764 112.894 17.4992 112.894 21.3452ZM129.814 28.7798V15.3342H126.652V17.1859C125.911 15.961 124.06 15.0781 122.208 15.0781C118.448 15.0781 115.514 18.1827 115.514 22.1427C115.514 26.1307 118.448 29.264 122.208 29.264C124.06 29.264 125.911 28.3525 126.652 27.1562V28.7226C126.652 30.8016 124.943 32.2545 122.806 32.2545C121.012 32.2545 119.303 31.6851 118.191 30.6023L116.596 32.7965C117.879 34.2208 120.499 35.1036 122.92 35.1036C126.88 35.1036 129.814 32.6258 129.814 28.7798ZM126.652 20.0607V24.2791C125.968 25.4461 124.429 26.3014 122.864 26.2991C120.47 26.2991 118.647 24.5334 118.647 22.1404C118.647 19.776 120.47 18.0097 122.864 18.0097C124.459 18.0097 125.968 18.8645 126.652 20.0607ZM136.338 29.2923H133.176V9.35156H136.338V29.2923ZM142.741 12.3641C143.125 11.9801 143.342 11.46 143.345 10.9169C143.345 9.83468 142.405 8.89453 141.294 8.89453C140.183 8.89453 139.272 9.83468 139.272 10.9169C139.27 11.1844 139.32 11.4496 139.421 11.6975C139.522 11.9454 139.67 12.171 139.858 12.3614C140.046 12.5519 140.269 12.7035 140.515 12.8076C140.762 12.9116 141.026 12.9661 141.294 12.9679C141.837 12.9651 142.357 12.7481 142.741 12.3641ZM142.861 29.2907V15.361H139.699V29.2907H142.861Z" fill="#333333"/>
</g>
<defs>
<clipPath id="clip0_2845_73443">
<rect width="143.346" height="40" fill="white"/>
</clipPath>
</defs>
</svg>
